<svg xmlns="http://www.w3.org/2000/svg" xmlns:svg="http://www.w3.org/2000/svg" xmlns:xlink="http://www.w3.org/1999/xlink" version="1.0" height="1880pt" width="1530pt" viewBox="45 -93 1538 1886" ><defs><style type="text/css">
            @font-face {
                font-family: 'lt_regular';
                src: url('https://app.creately.com/diagram/assets/fonts/lato/lt-regular-webfont.woff2') format('woff2'),
                    url('https://app.creately.com/diagram/assets/fonts/lato/lt-regular-webfont.woff') format('woff');
                font-weight: normal;
                font-style: normal;
            }
            @font-face {
                font-family: 'noto_regular';
                src: url('https://app.creately.com/diagram/assets/fonts/noto/noto-regular.woff') format('woff'),
                     url('https://app.creately.com/diagram/assets/fonts/noto/noto-regular.woff2') format('woff2');
                font-weight: normal;
                font-style: normal;
            }
        p {
            margin: 0;
        }
        </style></defs><defs><style>
            span{ display: inline-block; }
        </style></defs><g id="fpqxozTJvP0"><g transform="translate(260 99.99999999999989)"><path d="M 60,0 L 0,40 L 60,80 L 120,40 L 60,0 Z" fill="rgb(195,211,39)" stroke="#c3d327" stroke-width="2" stroke-linecap="round" stroke-linejoin="round" stroke-dasharray="0 0"/></g><g transform="translate(276.905, 128.9999999999999) rotate(0, 43.095, 11)" width="86.19" height="22"><text text-decoration="none" x="0.5949999999999989" fill="#ffffff" font-size="12pt" font-family="lt_regular"  y="17">Registered?&#160;</text><text text-decoration="none" x="85.595" fill="#4b4b4b" font-size="10pt" font-family="noto_regular"  y="17"></text></g></g><g id="bVyzRSL18ho"><g transform="translate(560 110.00000000000023)"><rect x="0" y="0" width="120" height="60" fill="rgb(15,72,138)" stroke="#0f488a" stroke-width="2" stroke-linecap="round" stroke-linejoin="round" stroke-dasharray="0 0"/></g><g transform="translate(577.695, 117.99500000000023) rotate(0, 42.305, 22.005)" width="84.61" height="44.01"><text text-decoration="none" x="25.805" fill="rgb(255, 255, 255)" font-size="12pt" font-family="lt_regular"  y="17">User&#160;</text><text text-decoration="none" x="0" fill="rgb(255, 255, 255)" font-size="12pt" font-family="lt_regular"  y="39">Registration</text><text text-decoration="none" x="85" fill="#4b4b4b" font-size="10pt" font-family="noto_regular"  y="39"></text></g></g><g id="9PdHc14aKNZ"><g transform="translate(260.0000000000001 280)"><rect x="0" y="0" width="120" height="60" fill="rgb(15,72,138)" stroke="#0f488a" stroke-width="2" stroke-linecap="round" stroke-linejoin="round" stroke-dasharray="0 0"/></g><g transform="translate(300.8200000000001, 299) rotate(0, 19.18, 11)" width="38.36" height="22"><text text-decoration="none" x="0.17999999999999972" fill="rgb(255, 255, 255)" font-size="12pt" font-family="lt_regular"  y="17">Login</text><text text-decoration="none" x="38.18" fill="#4b4b4b" font-size="10pt" font-family="noto_regular"  y="17"></text></g></g><g id="lVZxtkoYJkJ"><g transform="translate(260 449.99999999999994)"><path d="M 60,0 L 0,40 L 60,80 L 120,40 L 60,0 Z" fill="rgb(195,211,39)" stroke="#c3d327" stroke-width="2" stroke-linecap="round" stroke-linejoin="round" stroke-dasharray="0 0"/></g><g transform="translate(300.135, 479) rotate(0, 19.865, 11)" width="39.73" height="22"><text text-decoration="none" x="0" fill="#ffffff" font-size="12pt" font-family="lt_regular"  y="17">Shop&#160;</text><text text-decoration="none" x="40" fill="#4b4b4b" font-size="10pt" font-family="noto_regular"  y="17"></text></g></g><g id="dg3AvPyryfO"><g transform="translate(550 440)"><path d="M 69.99999999999996,0 L 0,50.00000000000004 L 69.99999999999996,100.00000000000009 L 139.99999999999991,50.00000000000004 L 69.99999999999996,0 Z" fill="rgb(195,211,39)" stroke="#c3d327" stroke-width="2" stroke-linecap="round" stroke-linejoin="round" stroke-dasharray="0 0"/></g><g transform="translate(560.995, 467.99500000000006) rotate(0, 59.005, 22.005)" width="118.01" height="44.01"><text text-decoration="none" x="41.005" fill="#ffffff" font-size="12pt" font-family="lt_regular"  y="17">View</text><text text-decoration="none" x="77.005" fill="#ffffff" font-size="12pt" font-family="lt_regular"  y="17"></text><text text-decoration="none" x="27.005000000000003" fill="#ffffff" font-size="12pt" font-family="lt_regular"  y="39">Account&#160;</text><text text-decoration="none" x="33.005" fill="#ffffff" font-size="12pt" font-family="lt_regular"  y="61">Status?</text><text text-decoration="none" x="85.005" fill="#4b4b4b" font-size="10pt" font-family="noto_regular"  y="61"></text></g></g><g id="Nsxo5TftAYM"><g transform="translate(260.0000000000001 640)"><rect x="0" y="0" width="120" height="60" fill="rgb(15,72,138)" stroke="#0f488a" stroke-width="2" stroke-linecap="round" stroke-linejoin="round" stroke-dasharray="0 0"/></g><g transform="translate(274.8250000000001, 647.995) rotate(0, 45.175, 22.005)" width="90.35" height="44.01"><text text-decoration="none" x="0" fill="rgb(255, 255, 255)" font-size="12pt" font-family="lt_regular"  y="17">View/Search&#160;</text><text text-decoration="none" x="26.174999999999997" fill="rgb(255, 255, 255)" font-size="12pt" font-family="lt_regular"  y="39">Items</text><text text-decoration="none" x="64.175" fill="#4b4b4b" font-size="10pt" font-family="noto_regular"  y="39"></text></g></g><g id="g3hB9CWGk7X"><g transform="translate(560 640)"><rect x="0" y="0" width="120" height="60" fill="rgb(15,72,138)" stroke="#0f488a" stroke-width="2" stroke-linecap="round" stroke-linejoin="round" stroke-dasharray="0 0"/></g><g transform="translate(570.75, 647.995) rotate(0, 49.25, 22.005)" width="98.5" height="44.01"><text text-decoration="none" x="31.25" fill="rgb(255, 255, 255)" font-size="12pt" font-family="lt_regular"  y="17">View&#160;</text><text text-decoration="none" x="19.25" fill="rgb(255, 255, 255)" font-size="12pt" font-family="lt_regular"  y="39">Account&#160;</text><text text-decoration="none" x="26.75" fill="rgb(255, 255, 255)" font-size="12pt" font-family="lt_regular"  y="61">Status</text><text text-decoration="none" x="71.75" fill="#4b4b4b" font-size="10pt" font-family="noto_regular"  y="61"></text></g></g><g id="hbxlT31oM5z"><g transform="translate(850 640)"><rect x="0" y="0" width="120" height="60" fill="rgb(15,72,138)" stroke="#0f488a" stroke-width="2" stroke-linecap="round" stroke-linejoin="round" stroke-dasharray="0 0"/></g><g transform="translate(885.34, 659) rotate(0, 24.66, 11)" width="49.32" height="22"><text text-decoration="none" x="0.16000000000000014" fill="rgb(255, 255, 255)" font-size="12pt" font-family="lt_regular"  y="17">Logout</text><text text-decoration="none" x="49.16" fill="#4b4b4b" font-size="10pt" font-family="noto_regular"  y="17"></text></g></g><g id="o6N38fgUKqC"><g transform="translate(260.0000000000001 830)"><rect x="0" y="0" width="120" height="60" fill="rgb(15,72,138)" stroke="#0f488a" stroke-width="2" stroke-linecap="round" stroke-linejoin="round" stroke-dasharray="0 0"/></g><g transform="translate(274.7650000000001, 837.995) rotate(0, 45.235, 22.005)" width="90.47" height="44.01"><text text-decoration="none" x="0.23499999999999943" fill="rgb(255, 255, 255)" font-size="12pt" font-family="lt_regular"  y="17">Add&#160;</text><text text-decoration="none" x="33.235" fill="rgb(255, 255, 255)" font-size="12pt" font-family="lt_regular"  y="17">Items&#160;</text><text text-decoration="none" x="75.235" fill="rgb(255, 255, 255)" font-size="12pt" font-family="lt_regular"  y="17">to&#160;</text><text text-decoration="none" x="29.735" fill="rgb(255, 255, 255)" font-size="12pt" font-family="lt_regular"  y="39">Cart</text><text text-decoration="none" x="60.735" fill="#4b4b4b" font-size="10pt" font-family="noto_regular"  y="39"></text></g></g><g id="CV22bcIRswq"><g transform="translate(260.0000000000001 1030)"><rect x="0" y="0" width="120" height="60" fill="rgb(15,72,138)" stroke="#0f488a" stroke-width="2" stroke-linecap="round" stroke-linejoin="round" stroke-dasharray="0 0"/></g><g transform="translate(276.9350000000001, 1037.995) rotate(0, 43.065, 22.005)" width="86.13" height="44.01"><text text-decoration="none" x="17.064999999999998" fill="rgb(255, 255, 255)" font-size="12pt" font-family="lt_regular"  y="17">Display&#160;</text><text text-decoration="none" x="27.564999999999998" fill="rgb(255, 255, 255)" font-size="12pt" font-family="lt_regular"  y="39">Cart&#160;</text><text text-decoration="none" x="10.564999999999998" fill="rgb(255, 255, 255)" font-size="12pt" font-family="lt_regular"  y="61">Contents</text><text text-decoration="none" x="75.565" fill="#4b4b4b" font-size="10pt" font-family="noto_regular"  y="61"></text></g></g><g id="FwiPhfK99qz"><g transform="translate(260 1220)"><path d="M 60.000000000000014,0 L 0,44.99999999999996 L 60.000000000000014,89.99999999999991 L 120.00000000000003,44.99999999999996 L 60.000000000000014,0 Z" fill="rgb(195,211,39)" stroke="#c3d327" stroke-width="2" stroke-linecap="round" stroke-linejoin="round" stroke-dasharray="0 0"/></g><g transform="translate(281.445, 1242.995) rotate(0, 38.555, 22.005)" width="77.11" height="44.01"><text text-decoration="none" x="12.055" fill="#ffffff" font-size="12pt" font-family="lt_regular"  y="17">Change</text><text text-decoration="none" x="65.055" fill="#ffffff" font-size="12pt" font-family="lt_regular"  y="17"></text><text text-decoration="none" x="0.054999999999999716" fill="#ffffff" font-size="12pt" font-family="lt_regular"  y="39">Cart&#160;</text><text text-decoration="none" x="39.055" fill="#ffffff" font-size="12pt" font-family="lt_regular"  y="39">Items</text><text text-decoration="none" x="77.055" fill="#4b4b4b" font-size="10pt" font-family="noto_regular"  y="39"></text></g></g><g id="mESfrrkuE5I"><g transform="translate(260 1440)"><rect x="0" y="0" width="120" height="60" fill="rgb(15,72,138)" stroke="#0f488a" stroke-width="2" stroke-linecap="round" stroke-linejoin="round" stroke-dasharray="0 0"/></g><g transform="translate(275.425, 1447.995) rotate(0, 44.575, 22.005)" width="89.15" height="44.01"><text text-decoration="none" x="0.5750000000000028" fill="rgb(255, 255, 255)" font-size="12pt" font-family="lt_regular"  y="17">Change&#160;</text><text text-decoration="none" x="57.575" fill="rgb(255, 255, 255)" font-size="12pt" font-family="lt_regular"  y="17">Item&#160;</text><text text-decoration="none" x="7.575000000000003" fill="rgb(255, 255, 255)" font-size="12pt" font-family="lt_regular"  y="39">Quantities</text><text text-decoration="none" x="81.575" fill="#4b4b4b" font-size="10pt" font-family="noto_regular"  y="39"></text></g></g><g id="9GVaUpI4tac"><g transform="translate(260.0000000000001 1630)"><rect x="0" y="0" width="120" height="60" fill="rgb(15,72,138)" stroke="#0f488a" stroke-width="2" stroke-linecap="round" stroke-linejoin="round" stroke-dasharray="0 0"/></g><g transform="translate(286.23000000000013, 1649) rotate(0, 33.77, 11)" width="67.54" height="22"><text text-decoration="none" x="0" fill="rgb(255, 255, 255)" font-size="12pt" font-family="lt_regular"  y="17">Checkout</text><text text-decoration="none" x="68" fill="#4b4b4b" font-size="10pt" font-family="noto_regular"  y="17"></text></g></g><g id="O8g1tvRBYMw"><g transform="translate(1180 840.0000000000001)"><rect x="0" y="0" width="119.99999999999997" height="59.999999999999986" fill="rgb(15,72,138)" stroke="#0f488a" stroke-width="2" stroke-linecap="round" stroke-linejoin="round" stroke-dasharray="0 0"/></g><g transform="translate(1190.025, 859.0000000000001) rotate(0, 49.975, 11)" width="99.95" height="22"><text text-decoration="none" x="16.975" fill="rgb(255, 255, 255)" font-size="12pt" font-family="lt_regular"  y="17">Shopping&#160;</text><text text-decoration="none" x="34.475" fill="rgb(255, 255, 255)" font-size="12pt" font-family="lt_regular"  y="39">Cart</text><text text-decoration="none" x="65.475" fill="#4b4b4b" font-size="10pt" font-family="noto_regular"  y="39"></text></g></g><g id="iuUgJ7EDjpc"><g transform="translate(1180 1010)"><rect x="0" y="0" width="120" height="60" fill="rgb(15,72,138)" stroke="#0f488a" stroke-width="2" stroke-linecap="round" stroke-linejoin="round" stroke-dasharray="0 0"/></g><g transform="translate(1192.89, 1017.995) rotate(0, 47.11, 22.005)" width="94.22" height="44.01"><text text-decoration="none" x="0.10999999999999943" fill="rgb(255, 255, 255)" font-size="12pt" font-family="lt_regular"  y="17">Payment&#160;</text><text text-decoration="none" x="66.11" fill="rgb(255, 255, 255)" font-size="12pt" font-family="lt_regular"  y="17">Info&#160;</text><text text-decoration="none" x="3.1099999999999994" fill="rgb(255, 255, 255)" font-size="12pt" font-family="lt_regular"  y="39">to&#160;</text><text text-decoration="none" x="22.11" fill="rgb(255, 255, 255)" font-size="12pt" font-family="lt_regular"  y="39">Merchant</text><text text-decoration="none" x="91.11" fill="#4b4b4b" font-size="10pt" font-family="noto_regular"  y="39"></text></g></g><g id="Io6ajTyUOy7"><g transform="translate(1150 1170)"><path d="M 89.99999999999996,0 L 0,45.00000000000003 L 89.99999999999996,90.00000000000006 L 179.99999999999991,45.00000000000003 L 89.99999999999996,0 Z" fill="rgb(195,211,39)" stroke="#c3d327" stroke-width="2" stroke-linecap="round" stroke-linejoin="round" stroke-dasharray="0 0"/></g><g transform="translate(1201.775, 1204) rotate(0, 38.225, 11)" width="76.45" height="22"><text text-decoration="none" x="0.22500000000000142" fill="#ffffff" font-size="12pt" font-family="lt_regular"  y="17">Approved?</text><text text-decoration="none" x="76.225" fill="#4b4b4b" font-size="10pt" font-family="noto_regular"  y="17"></text></g></g><g id="nAkyRYMmRjh"><g transform="translate(1480 1739.9999999999995)"><path d="M 19.999999999999996,39.99999999999999 L 19.999999999999996,39.99999999999999 L 19.999999999999996,39.99999999999999 A 19.999999999999996 19.999999999999996 0 0 1 0 20 L 0,19.999999999999996 L 0,20 A 19.999999999999996 19.999999999999996 0 0 1 19.999999999999996 0 L 79.99999999999997,0 L 79.99999999999997,0 L 79.99999999999997,0 A 19.999999999999996 19.999999999999996 0 0 1 99.99999999999997 19.999999999999996 L 99.99999999999997,19.999999999999996 L 99.99999999999997,19.999999999999996 A 19.999999999999996 19.999999999999996 0 0 1 79.99999999999997 39.99999999999999 L 19.999999999999996,39.99999999999999 Z" fill="rgb(192,35,44)" stroke="#c0232c" stroke-width="2" stroke-linecap="round" stroke-linejoin="round" stroke-dasharray="0 0"/></g><g transform="translate(1502.79, 1737.9949999999994) rotate(0, 27.21, 22.005)" width="54.42" height="44.01"><text text-decoration="none" x="13.71" fill="#ffffff" font-size="12pt" font-family="lt_regular"  y="17">End&#160;</text><text text-decoration="none" x="0" fill="#ffffff" font-size="12pt" font-family="lt_regular"  y="39">Process</text><text text-decoration="none" x="55" fill="#4b4b4b" font-size="10pt" font-family="noto_regular"  y="39"></text></g></g><g id="Hite7Z2PKib"><g transform="translate(1329.9999999999998 720)"><path d="M 0,0 L 150.00000000000202,0 L 150.00000000000202,74.99999999999989 L 35,74.99999999999989 L 15,89.99999999999989 L 15,74.99999999999989 L 0,74.99999999999989 L 0,0 Z" fill="rgb(244,116,33)" stroke="#f47421" stroke-width="2" stroke-linecap="round" stroke-linejoin="round" stroke-dasharray="0 0"/></g><g transform="translate(1345.6650000000009, 742.995) rotate(0, 59.335, 22.005)" width="118.67" height="44.01"><text text-decoration="none" x="22.835" fill="#ffffff" font-size="12pt" font-family="lt_regular"  y="17">Zen&#160;</text><text text-decoration="none" x="53.835" fill="#ffffff" font-size="12pt" font-family="lt_regular"  y="17">Cart&#160;</text><text text-decoration="none" x="88.83500000000001" fill="#ffffff" font-size="12pt" font-family="lt_regular"  y="17">/&#160;</text><text text-decoration="none" x="20.835" fill="#ffffff" font-size="12pt" font-family="lt_regular"  y="39">Agora&#160;</text><text text-decoration="none" x="66.83500000000001" fill="#ffffff" font-size="12pt" font-family="lt_regular"  y="39">Cart</text><text text-decoration="none" x="97.83500000000001" fill="#4b4b4b" font-size="10pt" font-family="noto_regular"  y="39"></text></g></g><g id="PfWgAiNqZl1"><g transform="translate(1369.9999999999998 940)"><path d="M 0,0 L 150,0 L 150,85 L 35,85 L 15,100 L 15,85 L 0,85 L 0,0 Z" fill="rgb(244,116,33)" stroke="#f47421" stroke-width="2" stroke-linecap="round" stroke-linejoin="round" stroke-dasharray="0 0"/></g><g transform="translate(1384.8099999999997, 967.995) rotate(0, 60.19, 22.005)" width="120.38" height="44.01"><text text-decoration="none" x="0.6899999999999977" fill="#ffffff" font-size="12pt" font-family="lt_regular"  y="17">AMEX,&#160;</text><text text-decoration="none" x="53.69" fill="#ffffff" font-size="12pt" font-family="lt_regular"  y="17">Discover,&#160;</text><text text-decoration="none" x="16.189999999999998" fill="#ffffff" font-size="12pt" font-family="lt_regular"  y="39">MasterCard,&#160;</text><text text-decoration="none" x="45.19" fill="#ffffff" font-size="12pt" font-family="lt_regular"  y="61">Visa</text><text text-decoration="none" x="75.19" fill="#4b4b4b" font-size="10pt" font-family="noto_regular"  y="61"></text></g></g><g id="8ye1JC1x8iZ"><g transform="translate(1330 1340)"><path d="M 0,0 L 150,0 L 150,54.9999999999998 L 35,54.9999999999998 L 15,69.9999999999998 L 15,54.9999999999998 L 0,54.9999999999998 L 0,0 Z" fill="rgb(244,116,33)" stroke="#f47421" stroke-width="2" stroke-linecap="round" stroke-linejoin="round" stroke-dasharray="0 0"/></g><g transform="translate(1353.14, 1364) rotate(0, 51.86, 11)" width="103.72" height="22"><text text-decoration="none" x="16.86" fill="#ffffff" font-size="12pt" font-family="lt_regular"  y="17">Microsoft&#160;</text><text text-decoration="none" x="35.86" fill="#ffffff" font-size="12pt" font-family="lt_regular"  y="39">POS</text><text text-decoration="none" x="67.86" fill="#4b4b4b" font-size="10pt" font-family="noto_regular"  y="39"></text></g></g><g id="kPooqmz5SSP"><g transform="translate(1329.9999999999998 1540)"><path d="M 0,0 L 150,0 L 150,85 L 35,85 L 15,100 L 15,85 L 0,85 L 0,0 Z" fill="rgb(244,116,33)" stroke="#f47421" stroke-width="2" stroke-linecap="round" stroke-linejoin="round" stroke-dasharray="0 0"/></g><g transform="translate(1355.0549999999998, 1557) rotate(0, 49.945, 33)" width="99.89" height="66"><text text-decoration="none" x="4.445" fill="#ffffff" font-size="12pt" font-family="lt_regular"  y="17">Cascade&#160;</text><text text-decoration="none" x="67.445" fill="#ffffff" font-size="12pt" font-family="lt_regular"  y="17">into&#160;</text><text text-decoration="none" x="9.445" fill="#ffffff" font-size="12pt" font-family="lt_regular"  y="39">subsequent&#160;</text><text text-decoration="none" x="22.445" fill="#ffffff" font-size="12pt" font-family="lt_regular"  y="61">Process&#160;</text><text text-decoration="none" x="28.945" fill="#ffffff" font-size="12pt" font-family="lt_regular"  y="83">Flows</text><text text-decoration="none" x="70.945" fill="#4b4b4b" font-size="10pt" font-family="noto_regular"  y="83"></text></g></g><g id="3r1o6fdTce9"><g transform="translate(1180 1730)"><rect x="0" y="0" width="119.99999999999997" height="59.999999999999986" fill="rgb(15,72,138)" stroke="#0f488a" stroke-width="2" stroke-linecap="round" stroke-linejoin="round" stroke-dasharray="0 0"/></g><g transform="translate(1193.835, 1737.995) rotate(0, 46.165, 22.005)" width="92.33" height="44.01"><text text-decoration="none" x="25.165" fill="rgb(255, 255, 255)" font-size="12pt" font-family="lt_regular"  y="17">Order&#160;</text><text text-decoration="none" x="0" fill="rgb(255, 255, 255)" font-size="12pt" font-family="lt_regular"  y="39">Confirmation</text><text text-decoration="none" x="93" fill="#4b4b4b" font-size="10pt" font-family="noto_regular"  y="39"></text></g></g><g id="YJ8NFGW9cVB"><g transform="translate(110 -90)"><rect x="0" y="0" width="600" height="61" fill="rgba(255,255,255,0.01)" stroke="rgba(255,255,255,0.01)"/></g><g transform="translate(120, -80) rotate(0, 0, 0)" width="508.93" height="40.01"><text text-decoration="none" x="0" fill="#4b4b4b" font-size="22pt" font-family="lt_regular"  y="32">E-commerce&#160;</text><text text-decoration="none" x="168" fill="#4b4b4b" font-size="22pt" font-family="lt_regular"  y="32">-&#160;</text><text text-decoration="none" x="186" fill="#4b4b4b" font-size="22pt" font-family="lt_regular"  y="32">Order&#160;</text><text text-decoration="none" x="269" fill="#4b4b4b" font-size="22pt" font-family="lt_regular"  y="32">Process&#160;</text><text text-decoration="none" x="375" fill="#4b4b4b" font-size="22pt" font-family="lt_regular"  y="32">Flowchart</text><text text-decoration="none" x="502" fill="#4b4b4b" font-size="10pt" font-family="noto_regular"  y="32"></text></g></g><g id="uKmjWkNt4Na"><g><path d="M 150,140 L 195,140 Q 195,140 205,140 Q 214.9999999999999,139.99999999999991 215,139.99999999999991 L 260,140" fill="none" stroke="#7E7E7E" stroke-width="2" stroke-linecap="round" stroke-linejoin="round"/><path d="M 260,140 L 251.30434782608697,134.25 L 251.30434782608697,145.75 Z" fill="rgb(126,126,126)" stroke="#7E7E7E" stroke-width="2" stroke-linecap="round" stroke-linejoin="round"/></g></g><g id="I50DJy3mafH"><mask id="26f8e" x="366" y="126" width="208" height="28" maskUnits="userSpaceOnUse"><rect x="366" y="126" width="208" height="28" fill="white" /><rect x="457.9" y="128.00000000000006" width="24.2" height="24" fill="black" /></mask><g mask="url(#26f8e)"><path d="M 380,140 L 460,139.9999999999999 Q 460.0000000000001,139.9999999999999 470,140 Q 479.9999999999998,140.0000000000002 480,140.0000000000002 L 560,140" fill="none" stroke="#7E7E7E" stroke-width="2" stroke-linecap="round" stroke-linejoin="round"/><path d="M 560,140 L 551.304347826087,134.25 L 551.304347826087,145.75 Z" fill="rgb(126,126,126)" stroke="#7E7E7E" stroke-width="2" stroke-linecap="round" stroke-linejoin="round"/></g><g transform="translate(460.9, 131.00000000000006)" width="18.2" height="18"><text text-decoration="none" x="0.09999999999999964" fill="#4b4b4b" font-size="10pt" font-family="noto_regular"  y="17">No</text><text text-decoration="none" x="18.1" fill="#4b4b4b" font-size="10pt" font-family="noto_regular"  y="17"></text></g></g><g id="PqSLAORDF7R"><mask id="060be" x="306" y="166" width="28" height="128" maskUnits="userSpaceOnUse"><rect x="306" y="166" width="28" height="128" fill="white" /><rect x="306.27000000000004" y="217.99999999999997" width="27.46" height="24" fill="black" /></mask><g mask="url(#060be)"><path d="M 320,180 L 320,219.99999999999994 Q 320,220 320,230 Q 320.0000000000001,239.99999999999983 320.0000000000001,239.99999999999994 L 320,280" fill="none" stroke="#7E7E7E" stroke-width="2" stroke-linecap="round" stroke-linejoin="round"/><path d="M 320,280 L 325.75,271.30434782608694 L 314.25,271.30434782608694 Z" fill="rgb(126,126,126)" stroke="#7E7E7E" stroke-width="2" stroke-linecap="round" stroke-linejoin="round"/></g><g transform="translate(309.27000000000004, 220.99999999999997)" width="21.46" height="18"><text text-decoration="none" x="0.7300000000000004" fill="#4b4b4b" font-size="10pt" font-family="noto_regular"  y="17">Yes</text><text text-decoration="none" x="20.73" fill="#4b4b4b" font-size="10pt" font-family="noto_regular"  y="17"></text></g></g><g id="4CPbWKKEzba"><g><path d="M 620,170 L 620,310 L 380,310" fill="none" stroke="#7E7E7E" stroke-width="2" stroke-linecap="round" stroke-linejoin="round"/><path d="M 380,310 L 388.69565217391306,315.75 L 388.69565217391306,304.25 Z" fill="rgb(126,126,126)" stroke="#7E7E7E" stroke-width="2" stroke-linecap="round" stroke-linejoin="round"/></g></g><g id="kYb9ltRyjoO"><g><path d="M 320,340 L 320.0000000000001,385 Q 320.0000000000001,385.0000000000001 320,395 Q 320,405 320,405 L 320,450" fill="none" stroke="#7E7E7E" stroke-width="2" stroke-linecap="round" stroke-linejoin="round"/><path d="M 320,450 L 325.75,441.30434782608694 L 314.25,441.30434782608694 Z" fill="rgb(126,126,126)" stroke="#7E7E7E" stroke-width="2" stroke-linecap="round" stroke-linejoin="round"/></g></g><g id="fW8jLfIrjVX"><mask id="005b0" x="306" y="516" width="28" height="138" maskUnits="userSpaceOnUse"><rect x="306" y="516" width="28" height="138" fill="white" /><rect x="306.27000000000004" y="573" width="27.46" height="24" fill="black" /></mask><g mask="url(#005b0)"><path d="M 320,530 L 320,575 Q 320,575 320,585 Q 320.0000000000001,594.9999999999999 320.0000000000001,595 L 320,640" fill="none" stroke="#7E7E7E" stroke-width="2" stroke-linecap="round" stroke-linejoin="round"/><path d="M 320,640 L 325.75,631.304347826087 L 314.25,631.304347826087 Z" fill="rgb(126,126,126)" stroke="#7E7E7E" stroke-width="2" stroke-linecap="round" stroke-linejoin="round"/></g><g transform="translate(309.27000000000004, 576)" width="21.46" height="18"><text text-decoration="none" x="0.7300000000000004" fill="#4b4b4b" font-size="10pt" font-family="noto_regular"  y="17">Yes</text><text text-decoration="none" x="20.73" fill="#4b4b4b" font-size="10pt" font-family="noto_regular"  y="17"></text></g></g><g id="YZFLIc3BghA"><mask id="f694f" x="366" y="476" width="198" height="28" maskUnits="userSpaceOnUse"><rect x="366" y="476" width="198" height="28" fill="white" /><rect x="452.9" y="478" width="24.2" height="24" fill="black" /></mask><g mask="url(#f694f)"><path d="M 380,490 L 465,490 Q 474.99999999999994,490.00000000000006 475,490.00000000000006 L 550,490" fill="none" stroke="#7E7E7E" stroke-width="2" stroke-linecap="round" stroke-linejoin="round"/><path d="M 550,490 L 541.304347826087,484.25 L 541.304347826087,495.75 Z" fill="rgb(126,126,126)" stroke="#7E7E7E" stroke-width="2" stroke-linecap="round" stroke-linejoin="round"/></g><g transform="translate(455.9, 481)" width="18.2" height="18"><text text-decoration="none" x="0.09999999999999964" fill="#4b4b4b" font-size="10pt" font-family="noto_regular"  y="17">No</text><text text-decoration="none" x="18.1" fill="#4b4b4b" font-size="10pt" font-family="noto_regular"  y="17"></text></g></g><g id="7ADu1sln9Lf"><mask id="f2468" x="606" y="526" width="28" height="128" maskUnits="userSpaceOnUse"><rect x="606" y="526" width="28" height="128" fill="white" /><rect x="606.27" y="578" width="27.46" height="24" fill="black" /></mask><g mask="url(#f2468)"><path d="M 620,540 L 620,640" fill="none" stroke="#7E7E7E" stroke-width="2" stroke-linecap="round" stroke-linejoin="round"/><path d="M 620,640 L 625.75,631.304347826087 L 614.25,631.304347826087 Z" fill="rgb(126,126,126)" stroke="#7E7E7E" stroke-width="2" stroke-linecap="round" stroke-linejoin="round"/></g><g transform="translate(609.27, 581)" width="21.46" height="18"><text text-decoration="none" x="0.7300000000000004" fill="#4b4b4b" font-size="10pt" font-family="noto_regular"  y="17">Yes</text><text text-decoration="none" x="20.73" fill="#4b4b4b" font-size="10pt" font-family="noto_regular"  y="17"></text></g></g><g id="p2CTwYmJBEu"><g><path d="M 690,490 L 910,490.00000000000006 L 910,640" fill="none" stroke="#7E7E7E" stroke-width="2" stroke-linecap="round" stroke-linejoin="round"/><path d="M 910,640 L 915.75,631.304347826087 L 904.25,631.304347826087 Z" fill="rgb(126,126,126)" stroke="#7E7E7E" stroke-width="2" stroke-linecap="round" stroke-linejoin="round"/></g></g><g id="OIJJQDka7Ta"><g><path d="M 320,700 L 320,830" fill="none" stroke="#7E7E7E" stroke-width="2" stroke-linecap="round" stroke-linejoin="round"/><path d="M 320,830 L 325.75,821.304347826087 L 314.25,821.304347826087 Z" fill="rgb(126,126,126)" stroke="#7E7E7E" stroke-width="2" stroke-linecap="round" stroke-linejoin="round"/></g></g><g id="2l9bvMtiPVQ"><g><path d="M 320,890 L 320,1030" fill="none" stroke="#7E7E7E" stroke-width="2" stroke-linecap="round" stroke-linejoin="round"/><path d="M 320,1030 L 325.75,1021.304347826087 L 314.25,1021.304347826087 Z" fill="rgb(126,126,126)" stroke="#7E7E7E" stroke-width="2" stroke-linecap="round" stroke-linejoin="round"/></g></g><g id="H8NBDtr0vAq"><g><path d="M 320,1090 L 320.0000000000001,1145 Q 320.0000000000001,1145 320,1155 Q 320,1165 320,1165 L 320,1220" fill="none" stroke="#7E7E7E" stroke-width="2" stroke-linecap="round" stroke-linejoin="round"/><path d="M 320,1220 L 325.75,1211.304347826087 L 314.25,1211.304347826087 Z" fill="rgb(126,126,126)" stroke="#7E7E7E" stroke-width="2" stroke-linecap="round" stroke-linejoin="round"/></g></g><g id="l9l8CJxIZ69"><mask id="082a0" x="306" y="1296" width="28" height="158" maskUnits="userSpaceOnUse"><rect x="306" y="1296" width="28" height="158" fill="white" /><rect x="306.27" y="1363" width="27.46" height="24" fill="black" /></mask><g mask="url(#082a0)"><path d="M 320,1310 L 320,1440" fill="none" stroke="#7E7E7E" stroke-width="2" stroke-linecap="round" stroke-linejoin="round"/><path d="M 320,1440 L 325.75,1431.304347826087 L 314.25,1431.304347826087 Z" fill="rgb(126,126,126)" stroke="#7E7E7E" stroke-width="2" stroke-linecap="round" stroke-linejoin="round"/></g><g transform="translate(309.27, 1366)" width="21.46" height="18"><text text-decoration="none" x="0.7300000000000004" fill="#4b4b4b" font-size="10pt" font-family="noto_regular"  y="17">Yes</text><text text-decoration="none" x="20.73" fill="#4b4b4b" font-size="10pt" font-family="noto_regular"  y="17"></text></g></g><g id="Zw4ENBOToRb"><mask id="39831" x="366" y="1251" width="48" height="423" maskUnits="userSpaceOnUse"><rect x="366" y="1251" width="48" height="423" fill="white" /><rect x="387.9" y="1450.5000000000002" width="24.2" height="24" fill="black" /></mask><g mask="url(#39831)"><path d="M 380,1265 L 400,1265 L 400,1438 L 400,1610 L 400,1610 L 400.0000000000001,1610 L 400,1635 L 400.0000000000001,1660 L 380,1660" fill="none" stroke="#7E7E7E" stroke-width="2" stroke-linecap="round" stroke-linejoin="round"/><path d="M 380,1660 L 388.69565217391306,1665.75 L 388.69565217391306,1654.25 Z" fill="rgb(126,126,126)" stroke="#7E7E7E" stroke-width="2" stroke-linecap="round" stroke-linejoin="round"/></g><g transform="translate(390.9, 1453.5000000000002)" width="18.2" height="18"><text text-decoration="none" x="0.09999999999999964" fill="#4b4b4b" font-size="10pt" font-family="noto_regular"  y="17">No</text><text text-decoration="none" x="18.1" fill="#4b4b4b" font-size="10pt" font-family="noto_regular"  y="17"></text></g></g><g id="SU87EpYmHD5"><g><path d="M 320,1500 L 320,1555 Q 320,1555 320,1565 Q 320.0000000000001,1575 320.0000000000001,1575 L 320,1630" fill="none" stroke="#7E7E7E" stroke-width="2" stroke-linecap="round" stroke-linejoin="round"/><path d="M 320,1630 L 325.75,1621.304347826087 L 314.25,1621.304347826087 Z" fill="rgb(126,126,126)" stroke="#7E7E7E" stroke-width="2" stroke-linecap="round" stroke-linejoin="round"/></g></g><g id="hqlrsd8CG3Y"><g><path d="M 317,1605 L 317,1605" fill="none" stroke="#7E7E7E" stroke-width="2" stroke-linecap="round" stroke-linejoin="round"/></g></g><g id="hM3o6vb9Lly"><g><path d="M 320,1690 L 320,1742.8997144379505 L 619,1743 L 917,1742.8997144379505 L 917,1306 L 917,870 L 1180,870" fill="none" stroke="#7E7E7E" stroke-width="2" stroke-linecap="round" stroke-linejoin="round"/><path d="M 1180,870 L 1171.304347826087,864.25 L 1171.304347826087,875.75 Z" fill="rgb(126,126,126)" stroke="#7E7E7E" stroke-width="2" stroke-linecap="round" stroke-linejoin="round"/></g></g><g id="9GY4OKy4Ywy"><g><path d="M 1240,900 L 1240,1010" fill="none" stroke="#7E7E7E" stroke-width="2" stroke-linecap="round" stroke-linejoin="round"/><path d="M 1240,1010 L 1245.75,1001.304347826087 L 1234.25,1001.304347826087 Z" fill="rgb(126,126,126)" stroke="#7E7E7E" stroke-width="2" stroke-linecap="round" stroke-linejoin="round"/></g></g><g id="JWkdhTn45GS"><g><path d="M 1240,1070 L 1240,1170" fill="none" stroke="#7E7E7E" stroke-width="2" stroke-linecap="round" stroke-linejoin="round"/><path d="M 1240,1170 L 1245.75,1161.304347826087 L 1234.25,1161.304347826087 Z" fill="rgb(126,126,126)" stroke="#7E7E7E" stroke-width="2" stroke-linecap="round" stroke-linejoin="round"/></g></g><g id="XKxvfhyEq66"><mask id="2e4d3" x="1226" y="1246" width="28" height="128" maskUnits="userSpaceOnUse"><rect x="1226" y="1246" width="28" height="128" fill="white" /><rect x="1226.27" y="1298" width="27.46" height="24" fill="black" /></mask><g mask="url(#2e4d3)"><path d="M 1240,1260 L 1240,1360" fill="none" stroke="#7E7E7E" stroke-width="2" stroke-linecap="round" stroke-linejoin="round"/><path d="M 1240,1360 L 1245.75,1351.304347826087 L 1234.25,1351.304347826087 Z" fill="rgb(126,126,126)" stroke="#7E7E7E" stroke-width="2" stroke-linecap="round" stroke-linejoin="round"/></g><g transform="translate(1229.27, 1301)" width="21.46" height="18"><text text-decoration="none" x="0.7300000000000004" fill="#4b4b4b" font-size="10pt" font-family="noto_regular"  y="17">Yes</text><text text-decoration="none" x="20.73" fill="#4b4b4b" font-size="10pt" font-family="noto_regular"  y="17"></text></g></g><g id="LTzMVDhVxBI"><mask id="02832" x="1286" y="856" width="78" height="373" maskUnits="userSpaceOnUse"><rect x="1286" y="856" width="78" height="373" fill="white" /><rect x="1307.9" y="1045.5" width="24.2" height="24" fill="black" />undefined</mask><g mask="url(#02832)"><path d="M 1330,1215 L 1350,1215 L 1350,1183 L 1350,1150 L 1335,1150 L 1320,1150 L 1320,1010 L 1320,870.0000000000001 L 1300,870" fill="none" stroke="#7E7E7E" stroke-width="2" stroke-linecap="round" stroke-linejoin="round"/><path d="M 1300,870 L 1308.695652173913,875.75 L 1308.695652173913,864.25 Z" fill="rgb(126,126,126)" stroke="#7E7E7E" stroke-width="2" stroke-linecap="round" stroke-linejoin="round"/></g><g transform="translate(1310.9, 1048.5)" width="18.2" height="18"><text text-decoration="none" x="0.09999999999999964" fill="#4b4b4b" font-size="10pt" font-family="noto_regular"  y="17">No</text><text text-decoration="none" x="18.1" fill="#4b4b4b" font-size="10pt" font-family="noto_regular"  y="17"></text></g>undefined</g><g id="SlHyaINQr01"><g><path d="M 1240,1440 L 1240,1550" fill="none" stroke="#7E7E7E" stroke-width="2" stroke-linecap="round" stroke-linejoin="round"/><path d="M 1240,1550 L 1245.75,1541.304347826087 L 1234.25,1541.304347826087 Z" fill="rgb(126,126,126)" stroke="#7E7E7E" stroke-width="2" stroke-linecap="round" stroke-linejoin="round"/></g></g><g id="chsgxwlYvtN"><g><path d="M 1240,1630 L 1240,1730" fill="none" stroke="#7E7E7E" stroke-width="2" stroke-linecap="round" stroke-linejoin="round"/><path d="M 1240,1730 L 1245.75,1721.304347826087 L 1234.25,1721.304347826087 Z" fill="rgb(126,126,126)" stroke="#7E7E7E" stroke-width="2" stroke-linecap="round" stroke-linejoin="round"/></g></g><g id="2fakbloXJra"><g><path d="M 1300,1760 L 1380,1760 Q 1380,1760 1390,1760 Q 1399.9999999999995,1759.9999999999995 1400,1759.9999999999995 L 1480,1760" fill="none" stroke="#7E7E7E" stroke-width="2" stroke-linecap="round" stroke-linejoin="round"/><path d="M 1480,1760 L 1471.304347826087,1754.25 L 1471.304347826087,1765.75 Z" fill="rgb(126,126,126)" stroke="#7E7E7E" stroke-width="2" stroke-linecap="round" stroke-linejoin="round"/></g></g><g id="L8U3R8jnj4V"><mask id="426ee" x="324" y="382" width="310" height="352" maskUnits="userSpaceOnUse"><rect x="324" y="382" width="310" height="352" fill="white" />undefined</mask><g mask="url(#426ee)"><path d="M 620,700 L 620,720 L 580,720 L 540,720 L 540,558 L 540,395.72698208750523 L 338,396" fill="none" stroke="#7E7E7E" stroke-width="2" stroke-linecap="round" stroke-linejoin="round"/><path d="M 338,396 L 346.69565217391306,401.75 L 346.69565217391306,390.25 Z" fill="rgb(126,126,126)" stroke="#7E7E7E" stroke-width="2" stroke-linecap="round" stroke-linejoin="round"/></g>undefined</g><g id="bbHd7pQSImh"><g><path d="M 260,1470 L 198.86653171542162,1470 Q 198.73306343084323,1470 189,1470 Q 179.1835304376143,1469.7518317400982 178.86661397529755,1469.7531171939845 L 118,1470" fill="none" stroke="#7E7E7E" stroke-width="2" stroke-linecap="round" stroke-linejoin="round"/><path d="M 118,1470 L 126.69565217391305,1475.75 L 126.69565217391305,1464.25 Z" fill="rgb(126,126,126)" stroke="#7E7E7E" stroke-width="2" stroke-linecap="round" stroke-linejoin="round"/></g></g><g id="KlnhhaDX85K"><g><path d="M 260,1060 L 198.00434337478086,1060 Q 198,1060 188,1060 Q 178.43792003861472,1060.3758029845378 178.00452450119954,1060.3731944521533 L 116,1060" fill="none" stroke="#7E7E7E" stroke-width="2" stroke-linecap="round" stroke-linejoin="round"/><path d="M 116,1060 L 124.69565217391305,1065.75 L 124.69565217391305,1054.25 Z" fill="rgb(126,126,126)" stroke="#7E7E7E" stroke-width="2" stroke-linecap="round" stroke-linejoin="round"/></g></g><g id="JKeGGTk2328"><g><path d="M 260,860 L 195.84887252317884,860 Q 195.69774504635768,860 186,860 Q 176.23630347334446,859.68980133503 175.848989118514,859.6916716854283 L 112,860" fill="none" stroke="#7E7E7E" stroke-width="2" stroke-linecap="round" stroke-linejoin="round"/><path d="M 112,860 L 120.69565217391305,865.75 L 120.69565217391305,854.25 Z" fill="rgb(126,126,126)" stroke="#7E7E7E" stroke-width="2" stroke-linecap="round" stroke-linejoin="round"/></g></g><g id="w3eQp96cfya"><g><path d="M 260,670 L 80.12723089363601,670 L 80,490 L 80.12723089363601,310 L 260,310" fill="none" stroke="#7E7E7E" stroke-width="2" stroke-linecap="round" stroke-linejoin="round"/><path d="M 260,310 L 251.30434782608697,304.25 L 251.30434782608697,315.75 Z" fill="rgb(126,126,126)" stroke="#7E7E7E" stroke-width="2" stroke-linecap="round" stroke-linejoin="round"/></g></g><g id="mBKvSRcclVa"><g><path d="M 260,1660 L 80.09709265450374,1660 L 80,985 L 80.09709265450374,310 L 260,310" fill="none" stroke="#7E7E7E" stroke-width="2" stroke-linecap="round" stroke-linejoin="round"/><path d="M 260,310 L 251.30434782608697,304.25 L 251.30434782608697,315.75 Z" fill="rgb(126,126,126)" stroke="#7E7E7E" stroke-width="2" stroke-linecap="round" stroke-linejoin="round"/></g></g><g id="xaDWrQRsLdv"><g transform="translate(1180 1359.9999999999998)"><path d="M 0,0 L 119.99999999999969,0 L 119.99999999999969,90.00000000000014 L 0,90.00000000000014 L 0,0 Z M 99.99999999999969,0 L 99.99999999999969,90.00000000000014 M 20,0 L 20,90.00000000000014" fill="rgb(120,199,168)" stroke="#19694a" stroke-width="2" stroke-linecap="round" stroke-linejoin="round" stroke-dasharray="0 0"/></g><g transform="translate(1201.39, 1382.995) rotate(0, 38.61, 22.005)" width="77.22" height="44.01"><text text-decoration="none" x="22.61" fill="#ffffff" font-size="12pt" font-family="lt_regular"  y="17">POS&#160;</text><text text-decoration="none" x="0.10999999999999943" fill="#ffffff" font-size="12pt" font-family="lt_regular"  y="39">Integration</text><text text-decoration="none" x="77.11" fill="#4b4b4b" font-size="10pt" font-family="noto_regular"  y="39"></text></g></g><g id="eoRLKi4tqta"><g transform="translate(1180.0000000000002 1550)"><path d="M 0,0 L 120,0 L 120,80 L 0,80 L 0,0 Z M 100,0 L 100,80 M 20,0 L 20,80" fill="rgb(120,199,168)" stroke="#19694a" stroke-width="2" stroke-linecap="round" stroke-linejoin="round" stroke-dasharray="0 0"/></g><g transform="translate(1202.0400000000002, 1567.995) rotate(0, 37.96, 22.005)" width="75.92" height="44.01"><text text-decoration="none" x="7.460000000000001" fill="#ffffff" font-size="12pt" font-family="lt_regular"  y="17">Shipping&#160;</text><text text-decoration="none" x="32.46" fill="#ffffff" font-size="12pt" font-family="lt_regular"  y="39">&#x26;&#160;</text><text text-decoration="none" x="6.460000000000001" fill="#ffffff" font-size="12pt" font-family="lt_regular"  y="61">Handling</text><text text-decoration="none" x="69.46000000000001" fill="#4b4b4b" font-size="10pt" font-family="noto_regular"  y="61"></text></g></g><g id="LimqzIYHon5"><g transform="translate(50 120)"><path d="M 20,40 L 20,40 L 20,40 A 20 20 0 0 1 0 20.000000000000004 L 0,20 L 0,20.000000000000004 A 20 20 0 0 1 20 0 L 80,0 L 80,0 L 80,0 A 20 20 0 0 1 100 20 L 100,20 L 100,20 A 20 20 0 0 1 80 40 L 20,40 Z" fill="rgb(255,255,255)" stroke="#f77474" stroke-width="2" stroke-linecap="round" stroke-linejoin="round"/></g><g transform="translate(85, 131) rotate(0, 15, 9)" width="30" height="18"><text text-decoration="none" x="0.5" fill="rgb(101, 101, 101)" font-size="10pt" font-family="noto_regular"  y="17">Start</text><text text-decoration="none" x="29.5" fill="#4b4b4b" font-size="10pt" font-family="noto_regular"  y="17"></text></g></g></svg>